<svg width="90" height="114" viewBox="0 0 90 114" fill="none" xmlns="http://www.w3.org/2000/svg">
<path d="M80.203 0H8.80917C3.95193 0 0 3.9517 0 8.80917V105.191C0 110.048 3.95193 114 8.80917 114H80.2028C85.06 114 89.012 110.048 89.012 105.191V8.80917C89.0122 3.9517 85.0603 0 80.203 0ZM3.33984 8.80917C3.33984 5.79351 5.79352 3.33984 8.80917 3.33984H80.2028C83.2187 3.33984 85.6721 5.79351 85.6721 8.80917V42.8359H3.33984V8.80917ZM85.6723 105.191C85.6723 108.206 83.2187 110.66 80.203 110.66H8.80917C5.79329 110.66 3.33984 108.206 3.33984 105.191V46.176H85.6723V105.191Z" fill="#5200D9"/>
<path d="M64.139 10.709H14.1638C12.2588 10.709 10.7091 12.2589 10.7091 14.1639V32.0123C10.7091 33.9173 12.2588 35.467 14.1638 35.467H17.7335C18.6557 35.467 19.4034 34.7196 19.4034 33.7971C19.4034 32.8746 18.6557 32.1272 17.7335 32.1272H14.1638C14.1487 32.1272 14.1338 32.1242 14.1199 32.1184C14.1059 32.1127 14.0933 32.1042 14.0826 32.0935C14.0719 32.0829 14.0635 32.0702 14.0577 32.0563C14.0519 32.0423 14.0489 32.0274 14.0489 32.0123V14.1639C14.0489 14.1005 14.1004 14.0488 14.1638 14.0488H64.139C65.0615 14.0488 65.8089 13.3014 65.8089 12.3789C65.8089 11.4564 65.0615 10.709 64.139 10.709Z" fill="#5200D9"/>
<path d="M74.8486 10.709H71.2789C70.3565 10.709 69.609 11.4564 69.609 12.3789C69.609 13.3014 70.3565 14.0491 71.2787 14.0491H74.8483C74.9116 14.0491 74.9632 14.1005 74.9632 14.1642V32.0125C74.9632 32.043 74.9511 32.0722 74.9295 32.0937C74.908 32.1152 74.8788 32.1273 74.8483 32.1274H24.8731C23.9509 32.1274 23.2032 32.8749 23.2032 33.7973C23.2032 34.7198 23.9509 35.4672 24.8731 35.4672H74.8486C76.7536 35.4672 78.3033 33.9176 78.3033 32.0125V14.1639C78.3033 12.2589 76.7536 10.709 74.8486 10.709ZM35.582 53.5451C31.7087 53.5451 28.5577 56.6962 28.5577 60.5697C28.5577 64.4433 31.7087 67.5943 35.582 67.5943C39.4554 67.5943 42.6064 64.4433 42.6064 60.5697C42.6064 56.6962 39.4554 53.5451 35.582 53.5451ZM35.582 64.2545C33.5503 64.2545 31.8975 62.6015 31.8975 60.5697C31.8975 58.538 33.5503 56.885 35.582 56.885C37.6138 56.885 39.2665 58.538 39.2665 60.5697C39.2665 62.6015 37.6138 64.2545 35.582 64.2545ZM35.582 71.3939C31.7087 71.3939 28.5577 74.545 28.5577 78.4183C28.5577 82.2916 31.7087 85.4429 35.582 85.4429C39.4554 85.4429 42.6064 82.2918 42.6064 78.4183C42.6064 74.545 39.4554 71.3939 35.582 71.3939ZM35.582 82.1028C33.5503 82.1028 31.8975 80.4498 31.8975 78.4181C31.8975 76.3863 33.5503 74.7336 35.582 74.7336C37.6138 74.7336 39.2665 76.3863 39.2665 78.4181C39.2665 80.4498 37.6138 82.1028 35.582 82.1028ZM35.582 89.2423C31.7087 89.2423 28.5577 92.3933 28.5577 96.2666C28.5577 100.14 31.7087 103.291 35.582 103.291C39.4554 103.291 42.6064 100.14 42.6064 96.2666C42.6064 92.3933 39.4554 89.2423 35.582 89.2423ZM35.582 99.9512C33.5503 99.9512 31.8975 98.2982 31.8975 96.2664C31.8975 94.2347 33.5503 92.5819 35.582 92.5819C37.6138 92.5819 39.2665 94.2347 39.2665 96.2664C39.2665 98.2982 37.6138 99.9512 35.582 99.9512ZM53.4304 53.5451C49.557 53.5451 46.4058 56.6962 46.4058 60.5697C46.4058 64.4433 49.5568 67.5943 53.4304 67.5943C57.3037 67.5943 60.4547 64.4433 60.4547 60.5697C60.4547 56.6962 57.3037 53.5451 53.4304 53.5451ZM53.4304 64.2545C51.3986 64.2545 49.7456 62.6015 49.7456 60.5697C49.7456 58.538 51.3986 56.885 53.4304 56.885C55.4621 56.885 57.1149 58.538 57.1149 60.5697C57.1149 62.6015 55.4621 64.2545 53.4304 64.2545ZM53.4304 71.3939C49.557 71.3939 46.4058 74.545 46.4058 78.4183C46.4058 82.2916 49.5568 85.4429 53.4304 85.4429C57.3037 85.4429 60.4547 82.2918 60.4547 78.4183C60.4547 74.545 57.3037 71.3939 53.4304 71.3939ZM53.4304 82.1028C51.3986 82.1028 49.7456 80.4498 49.7456 78.4181C49.7456 76.3863 51.3986 74.7336 53.4304 74.7336C55.4621 74.7336 57.1149 76.3863 57.1149 78.4181C57.1149 80.4498 55.4621 82.1028 53.4304 82.1028ZM53.4304 89.2423C49.557 89.2423 46.4058 92.3933 46.4058 96.2666C46.4058 100.14 49.5568 103.291 53.4304 103.291C57.3037 103.291 60.4547 100.14 60.4547 96.2666C60.4547 92.3933 57.3037 89.2423 53.4304 89.2423ZM53.4304 99.9512C51.3986 99.9512 49.7456 98.2982 49.7456 96.2664C49.7456 94.2347 51.3986 92.5819 53.4304 92.5819C55.4621 92.5819 57.1149 94.2347 57.1149 96.2664C57.1149 98.2982 55.4621 99.9512 53.4304 99.9512ZM17.7337 53.5451C13.8603 53.5451 10.7091 56.6962 10.7091 60.5697C10.7091 64.4433 13.8603 67.5943 17.7337 67.5943C21.607 67.5943 24.758 64.4433 24.758 60.5697C24.758 56.6962 21.607 53.5451 17.7337 53.5451ZM17.7337 64.2545C15.7019 64.2545 14.0489 62.6015 14.0489 60.5697C14.0489 58.538 15.7019 56.885 17.7337 56.885C19.7654 56.885 21.4182 58.538 21.4182 60.5697C21.4182 62.6015 19.7654 64.2545 17.7337 64.2545ZM17.7337 71.3939C13.8603 71.3939 10.7091 74.545 10.7091 78.4183C10.7091 82.2916 13.8603 85.4429 17.7337 85.4429C21.607 85.4429 24.758 82.2918 24.758 78.4183C24.758 74.545 21.607 71.3939 17.7337 71.3939ZM17.7337 82.1028C15.7019 82.1028 14.0489 80.4498 14.0489 78.4181C14.0489 76.3863 15.7019 74.7336 17.7337 74.7336C19.7654 74.7336 21.4182 76.3863 21.4182 78.4181C21.4182 80.4498 19.7654 82.1028 17.7337 82.1028ZM17.7337 89.2423C13.8603 89.2423 10.7091 92.3933 10.7091 96.2666C10.7091 100.14 13.8603 103.291 17.7337 103.291C21.607 103.291 24.758 100.14 24.758 96.2666C24.758 92.3933 21.607 89.2423 17.7337 89.2423ZM17.7337 99.9512C15.7019 99.9512 14.0489 98.2982 14.0489 96.2664C14.0489 94.2347 15.7019 92.5819 17.7337 92.5819C19.7654 92.5819 21.4182 94.2347 21.4182 96.2664C21.4182 98.2982 19.7654 99.9512 17.7337 99.9512ZM71.2787 53.5451C67.4054 53.5451 64.2541 56.6962 64.2541 60.5697C64.2541 64.4433 67.4052 67.5943 71.2787 67.5943C75.1521 67.5943 78.3031 64.4433 78.3031 60.5697C78.3031 56.6962 75.1521 53.5451 71.2787 53.5451ZM71.2787 64.2545C69.247 64.2545 67.594 62.6015 67.594 60.5697C67.594 58.538 69.247 56.885 71.2787 56.885C73.3105 56.885 74.9632 58.538 74.9632 60.5697C74.9632 62.6015 73.3105 64.2545 71.2787 64.2545ZM71.2787 71.3939C67.4054 71.3939 64.2541 74.545 64.2541 78.4183V96.2666C64.2541 100.14 67.4052 103.291 71.2787 103.291C75.1521 103.291 78.3031 100.14 78.3031 96.2666V78.4183C78.3031 74.545 75.1521 71.3939 71.2787 71.3939ZM74.9632 96.2664C74.9632 98.2982 73.3102 99.9512 71.2787 99.9512C69.247 99.9512 67.594 98.2982 67.594 96.2664V78.4181C67.594 76.3863 69.247 74.7336 71.2787 74.7336C73.3102 74.7336 74.9632 76.3863 74.9632 78.4181V96.2664Z" fill="#5200D9"/>
</svg>
